# xmcd
#
# Track frame offsets: 
#        150
#        4402
#        31744
#        35058
#        49862
#        63590
#        79215
#        82762
#        103340
#        126120
#        142775
#        153059
#        175313
#        200924
#        206813
#        223905
#
# Disc length: 3263 seconds
#
# Revision: 7
# Processed by: cddbd v1.5.2PL0 Copyright (c) Steve Scherf et al.
# Submitted via: ExactAudioCopy v0.95b4
#
DISCID=e50cbd10
DTITLE=Aeternom - Fight for the kingdom
DYEAR=2004
DGENRE=Rock
TTITLE0=Introitus
TTITLE1=Fight for the kingdom
TTITLE2=Wishes
TTITLE3=Power of magic
TTITLE4=Forces
TTITLE5=Battle of the light
TTITLE6=Gates of doom
TTITLE7=Princess of the dark
TTITLE8=Death comes along
TTITLE9=Break the chains
TTITLE10=Lost Souls
TTITLE11=Here I stand
TTITLE12=Final Warning
TTITLE13=He`s my son
TTITLE14=Return to the light
TTITLE15=Rose under black skies
EXTD=
EXTT0=www.aeternom.de
EXTT1=www.aeternom.de
EXTT2=www.aeternom.de
EXTT3=www.aeternom.de
EXTT4=www.aeternom.de
EXTT5=www.aeternom.de
EXTT6=www.aeternom.de
EXTT7=www.aeternom.de
EXTT8=www.aeternom.de
EXTT9=www.aeternom.de
EXTT10=www.aeternom.de
EXTT11=www.aeternom.de
EXTT12=www.aeternom.de
EXTT13=www.aeternom.de
EXTT14=www.aeternom.de
EXTT15=www.aeternom.de
PLAYORDER=
